<mxfile host="app.diagrams.net" modified="2023-07-17T12:38:34.716Z" agent="5.0 (Macintosh; Intel Mac OS X 10_15_7) AppleWebKit/537.36 (KHTML, like Gecko) Chrome/114.0.0.0 Safari/537.36" etag="RB4HTIRamFNR3AbWm7W4" version="20.8.20" type="github">
  <diagram name="第 1 页" id="sFnVmJiUPoFZ_AUv9MHa">
    <mxGraphModel dx="1434" dy="739" grid="1" gridSize="10" guides="1" tooltips="1" connect="1" arrows="1" fold="1" page="1" pageScale="1" pageWidth="827" pageHeight="1169" math="0" shadow="0">
      <root>
        <mxCell id="0" />
        <mxCell id="1" parent="0" />
        <mxCell id="94VdkSYHQo77dAiLUlks-26" value="" style="rounded=0;whiteSpace=wrap;html=1;glass=0;arcSize=12;fillColor=#d5e8d4;strokeColor=#82b366;" vertex="1" parent="1">
          <mxGeometry x="40" y="60" width="690" height="510" as="geometry" />
        </mxCell>
        <mxCell id="94VdkSYHQo77dAiLUlks-24" style="edgeStyle=orthogonalEdgeStyle;rounded=0;orthogonalLoop=1;jettySize=auto;html=1;dashed=1;" edge="1" parent="1" source="94VdkSYHQo77dAiLUlks-1" target="94VdkSYHQo77dAiLUlks-7">
          <mxGeometry relative="1" as="geometry" />
        </mxCell>
        <mxCell id="94VdkSYHQo77dAiLUlks-25" value="获取数据" style="edgeLabel;html=1;align=center;verticalAlign=middle;resizable=0;points=[];" vertex="1" connectable="0" parent="94VdkSYHQo77dAiLUlks-24">
          <mxGeometry x="0.0044" y="3" relative="1" as="geometry">
            <mxPoint y="1" as="offset" />
          </mxGeometry>
        </mxCell>
        <mxCell id="94VdkSYHQo77dAiLUlks-1" value="本地存储" style="shape=datastore;whiteSpace=wrap;html=1;" vertex="1" parent="1">
          <mxGeometry x="160" y="265" width="130" height="60" as="geometry" />
        </mxCell>
        <mxCell id="94VdkSYHQo77dAiLUlks-8" style="edgeStyle=orthogonalEdgeStyle;rounded=0;orthogonalLoop=1;jettySize=auto;html=1;entryX=0.5;entryY=0;entryDx=0;entryDy=0;" edge="1" parent="1" source="94VdkSYHQo77dAiLUlks-2" target="94VdkSYHQo77dAiLUlks-3">
          <mxGeometry relative="1" as="geometry" />
        </mxCell>
        <mxCell id="94VdkSYHQo77dAiLUlks-18" style="edgeStyle=orthogonalEdgeStyle;rounded=0;orthogonalLoop=1;jettySize=auto;html=1;entryX=1;entryY=0.5;entryDx=0;entryDy=0;dashed=1;" edge="1" parent="1" source="94VdkSYHQo77dAiLUlks-2" target="94VdkSYHQo77dAiLUlks-1">
          <mxGeometry relative="1" as="geometry" />
        </mxCell>
        <mxCell id="94VdkSYHQo77dAiLUlks-2" value="进入下载队列" style="rounded=1;whiteSpace=wrap;html=1;" vertex="1" parent="1">
          <mxGeometry x="480" y="100" width="136" height="40" as="geometry" />
        </mxCell>
        <mxCell id="94VdkSYHQo77dAiLUlks-10" style="edgeStyle=orthogonalEdgeStyle;rounded=0;orthogonalLoop=1;jettySize=auto;html=1;entryX=0.5;entryY=0;entryDx=0;entryDy=0;" edge="1" parent="1" source="94VdkSYHQo77dAiLUlks-3" target="94VdkSYHQo77dAiLUlks-9">
          <mxGeometry relative="1" as="geometry" />
        </mxCell>
        <mxCell id="94VdkSYHQo77dAiLUlks-19" style="edgeStyle=orthogonalEdgeStyle;rounded=0;orthogonalLoop=1;jettySize=auto;html=1;entryX=1;entryY=0.5;entryDx=0;entryDy=0;dashed=1;" edge="1" parent="1" source="94VdkSYHQo77dAiLUlks-3" target="94VdkSYHQo77dAiLUlks-1">
          <mxGeometry relative="1" as="geometry" />
        </mxCell>
        <mxCell id="94VdkSYHQo77dAiLUlks-3" value="开始下载" style="rounded=1;whiteSpace=wrap;html=1;" vertex="1" parent="1">
          <mxGeometry x="480" y="180" width="136" height="40" as="geometry" />
        </mxCell>
        <mxCell id="94VdkSYHQo77dAiLUlks-13" style="edgeStyle=orthogonalEdgeStyle;rounded=0;orthogonalLoop=1;jettySize=auto;html=1;entryX=1;entryY=0.5;entryDx=0;entryDy=0;dashed=1;" edge="1" parent="1" source="94VdkSYHQo77dAiLUlks-4" target="94VdkSYHQo77dAiLUlks-1">
          <mxGeometry relative="1" as="geometry" />
        </mxCell>
        <mxCell id="94VdkSYHQo77dAiLUlks-16" style="edgeStyle=orthogonalEdgeStyle;rounded=0;orthogonalLoop=1;jettySize=auto;html=1;entryX=0;entryY=0.5;entryDx=0;entryDy=0;" edge="1" parent="1" source="94VdkSYHQo77dAiLUlks-4" target="94VdkSYHQo77dAiLUlks-15">
          <mxGeometry relative="1" as="geometry" />
        </mxCell>
        <mxCell id="94VdkSYHQo77dAiLUlks-4" value="下载成功" style="rounded=1;whiteSpace=wrap;html=1;" vertex="1" parent="1">
          <mxGeometry x="390" y="325" width="136" height="50" as="geometry" />
        </mxCell>
        <mxCell id="94VdkSYHQo77dAiLUlks-14" style="edgeStyle=orthogonalEdgeStyle;rounded=0;orthogonalLoop=1;jettySize=auto;html=1;entryX=1;entryY=0.5;entryDx=0;entryDy=0;dashed=1;" edge="1" parent="1" source="94VdkSYHQo77dAiLUlks-5" target="94VdkSYHQo77dAiLUlks-1">
          <mxGeometry relative="1" as="geometry">
            <Array as="points">
              <mxPoint x="638" y="410" />
              <mxPoint x="340" y="410" />
              <mxPoint x="340" y="295" />
            </Array>
          </mxGeometry>
        </mxCell>
        <mxCell id="94VdkSYHQo77dAiLUlks-17" style="edgeStyle=orthogonalEdgeStyle;rounded=0;orthogonalLoop=1;jettySize=auto;html=1;entryX=1;entryY=0.5;entryDx=0;entryDy=0;" edge="1" parent="1" source="94VdkSYHQo77dAiLUlks-5" target="94VdkSYHQo77dAiLUlks-15">
          <mxGeometry relative="1" as="geometry" />
        </mxCell>
        <mxCell id="94VdkSYHQo77dAiLUlks-5" value="下载失败" style="rounded=1;whiteSpace=wrap;html=1;" vertex="1" parent="1">
          <mxGeometry x="570" y="325" width="136" height="50" as="geometry" />
        </mxCell>
        <mxCell id="94VdkSYHQo77dAiLUlks-20" style="edgeStyle=orthogonalEdgeStyle;rounded=0;orthogonalLoop=1;jettySize=auto;html=1;entryX=0;entryY=0.5;entryDx=0;entryDy=0;exitX=0.5;exitY=1;exitDx=0;exitDy=0;dashed=1;" edge="1" parent="1" source="94VdkSYHQo77dAiLUlks-6" target="94VdkSYHQo77dAiLUlks-1">
          <mxGeometry relative="1" as="geometry">
            <Array as="points">
              <mxPoint x="110" y="295" />
            </Array>
          </mxGeometry>
        </mxCell>
        <mxCell id="94VdkSYHQo77dAiLUlks-21" style="edgeStyle=orthogonalEdgeStyle;rounded=0;orthogonalLoop=1;jettySize=auto;html=1;entryX=0;entryY=0.5;entryDx=0;entryDy=0;" edge="1" parent="1" source="94VdkSYHQo77dAiLUlks-6" target="94VdkSYHQo77dAiLUlks-7">
          <mxGeometry relative="1" as="geometry" />
        </mxCell>
        <mxCell id="94VdkSYHQo77dAiLUlks-6" value="打开页面" style="ellipse;shape=doubleEllipse;whiteSpace=wrap;html=1;aspect=fixed;" vertex="1" parent="1">
          <mxGeometry x="70" y="465" width="80" height="80" as="geometry" />
        </mxCell>
        <mxCell id="94VdkSYHQo77dAiLUlks-7" value="LCP上报" style="rounded=1;whiteSpace=wrap;html=1;" vertex="1" parent="1">
          <mxGeometry x="230" y="480" width="136" height="50" as="geometry" />
        </mxCell>
        <mxCell id="94VdkSYHQo77dAiLUlks-11" style="edgeStyle=orthogonalEdgeStyle;rounded=0;orthogonalLoop=1;jettySize=auto;html=1;entryX=0.5;entryY=0;entryDx=0;entryDy=0;" edge="1" parent="1" source="94VdkSYHQo77dAiLUlks-9" target="94VdkSYHQo77dAiLUlks-4">
          <mxGeometry relative="1" as="geometry" />
        </mxCell>
        <mxCell id="94VdkSYHQo77dAiLUlks-12" style="edgeStyle=orthogonalEdgeStyle;rounded=0;orthogonalLoop=1;jettySize=auto;html=1;entryX=0.5;entryY=0;entryDx=0;entryDy=0;" edge="1" parent="1" source="94VdkSYHQo77dAiLUlks-9" target="94VdkSYHQo77dAiLUlks-5">
          <mxGeometry relative="1" as="geometry" />
        </mxCell>
        <mxCell id="94VdkSYHQo77dAiLUlks-9" value="" style="rhombus;whiteSpace=wrap;html=1;" vertex="1" parent="1">
          <mxGeometry x="528" y="260" width="40" height="40" as="geometry" />
        </mxCell>
        <mxCell id="94VdkSYHQo77dAiLUlks-15" value="上报数据" style="rounded=1;whiteSpace=wrap;html=1;" vertex="1" parent="1">
          <mxGeometry x="480" y="480" width="136" height="50" as="geometry" />
        </mxCell>
      </root>
    </mxGraphModel>
  </diagram>
</mxfile>
